<svg id="Layer_1" data-name="Layer 1" xmlns="http://www.w3.org/2000/svg" viewBox="0 0 130.78 131.04"><defs><style>.cls-1{fill:#ae275f;}.cls-2{fill:#fff;}</style></defs><title>Artboard 2 copyaxisbank</title><g id="P1ExZu.tif"><g id="Group_35" data-name="Group 35"><path id="Path_31" data-name="Path 31" class="cls-1" d="M21.91,47.89V41.56h-5.3V35l11.52-2.82,36.35-8.8a4,4,0,0,1,1.75,0Q89.66,29,113.08,34.73c.3.07.6.18.93.29V41.5h-5.3v6.4Zm27.32-13.4c.6.87.65,5.09.07,6,1.06,0,2.12,0,3.18,0a1.78,1.78,0,0,0,1.93-1.34,1.39,1.39,0,0,0-1-1.67c.24-.61.7-1.21.66-1.77-.06-.94-.93-1.16-1.74-1.19-1,0-2,0-3.09,0Zm30.3,0c-.08,1.59-1.56,1.75-2.2,2.65l-.3-.11c.09-.85.17-1.7.25-2.51h-2.2c.75.92.74,5.14,0,5.91h2.2c-.07-.87-.13-1.7-.19-2.52l.34-.11c.41.94,1.58,1.39,1.49,2.6h2.48l-3-3.59,2.93-2.32ZM67.38,36.09l3.85,4.67c.42-2.22-.37-4.3.54-6.24H70.69l.3,3.24-.28.06-1.85-2.3c-.93-1.17-1.2-1.25-2.72-.86.88.86.94,4.84.12,5.77H67.5C66.84,39,67.34,37.55,67.38,36.09Zm-4.27,4.38-2.82-6.14-2.88,6.13h1c.06-.55,0-1.32.16-1.37a3.62,3.62,0,0,1,2-.13c.3.1.36.95.55,1.51Z"/><path id="Path_32" data-name="Path 32" class="cls-1" d="M40.48,99.26c.81-1,1.56-1.77,2.22-2.63a1.7,1.7,0,0,1,1.52-.74c3.68,0,7.36,0,11,0a2,2,0,0,1,1.48.71c1.44,2.46,3.5,3.2,6.27,2.92a65.78,65.78,0,0,1,7.43,0,1.48,1.48,0,0,0,1.52-.7c1.41-2.62,3.62-3.23,6.44-3a71.57,71.57,0,0,0,7.75,0,1.92,1.92,0,0,1,1.8.81c.62.86,1.36,1.63,2.16,2.57.75-.9,1.49-1.73,2.17-2.61a1.81,1.81,0,0,1,1.61-.77c3.65,0,7.29,0,10.94,0a1.47,1.47,0,0,1,1.52.69,5.51,5.51,0,0,0,6.32,3,12.89,12.89,0,0,1,2.06,0V106H15.87V99.52c1.57,0,3.19,0,4.8,0a1.72,1.72,0,0,0,1.78-.83c1.34-2.4,3.36-3.12,6.07-2.86a71.83,71.83,0,0,0,8.17,0,1.8,1.8,0,0,1,1.62.77C39,97.52,39.7,98.33,40.48,99.26Z"/><path id="Path_33" data-name="Path 33" class="cls-1" d="M12.61,113.27V107H118v6.29Z"/><path id="Path_34" data-name="Path 34" class="cls-1" d="M56.46,49c.27,1.53.28,2.9-1.28,3.78A2.47,2.47,0,0,0,54,55.3q.06,19.11,0,38.23v1.33H45.43V93.63q0-19.38,0-38.77a1.8,1.8,0,0,0-.84-1.79c-1.58-.91-2-2.28-1.5-4Z"/><path id="Path_35" data-name="Path 35" class="cls-1" d="M85.17,94.88H76.56V93.63c0-12.78,0-25.56,0-38.35a2.5,2.5,0,0,0-1.18-2.48c-1.57-.88-1.53-2.26-1.27-3.79H87.48c.36,1.61.25,3-1.34,3.93a2.12,2.12,0,0,0-1,2.14q0,19.23,0,38.46Z"/><path id="Path_36" data-name="Path 36" class="cls-1" d="M26.94,94.86V93.42q0-19.19,0-38.36A2,2,0,0,0,26,53c-1.58-.89-1.84-2.27-1.43-4H37.9c.21,1.47.38,2.88-1.22,3.78a2.45,2.45,0,0,0-1.16,2.47q.06,19.13,0,38.25v1.33Z"/><path id="Path_37" data-name="Path 37" class="cls-1" d="M92.69,49H106c.18,1.42.48,2.84-1.08,3.71-1.15.64-1.31,1.63-1.31,2.85,0,12.64,0,25.27,0,37.9v1.42H95V93.63q0-19.17,0-38.32a2.45,2.45,0,0,0-1.14-2.49C92.33,51.94,92.48,50.52,92.69,49Z"/><path id="Path_38" data-name="Path 38" class="cls-2" d="M49.22,34.5c1.05,0,2.07,0,3.1,0,.81,0,1.68.25,1.74,1.18,0,.57-.42,1.17-.66,1.78a1.39,1.39,0,0,1,1,1.67,1.78,1.78,0,0,1-1.93,1.34c-1.06.05-2.12,0-3.18,0C49.88,39.58,49.83,35.36,49.22,34.5Zm2.29,3-.35.28v.95c0,.24,0,.5,0,.74.07.71.57,1,1,.5a1.8,1.8,0,0,0,.48-1.45C52.56,38.05,51.93,37.79,51.51,37.46Zm-.28-.25c.91-.13,1.44-.47,1.36-1.3s-.59-1-1.36-1Z"/><path id="Path_39" data-name="Path 39" class="cls-2" d="M79.53,34.51H81.3l-2.94,2.33,3,3.59H78.89c.09-1.22-1.08-1.67-1.49-2.6l-.34.1.19,2.53h-2.2c.77-.78.78-5,0-5.92h2.2c-.08.82-.16,1.67-.24,2.51l.29.11C78,36.27,79.45,36.1,79.53,34.51Z"/><path id="Path_40" data-name="Path 40" class="cls-2" d="M67.38,36.09c0,1.47-.54,2.95.12,4.34H66.26c.82-.93.76-4.91-.12-5.77,1.52-.39,1.79-.3,2.73.86.61.77,1.23,1.54,1.85,2.3l.27-.06-.3-3.24h1.08c-.9,1.94-.12,4-.54,6.24Z"/><path id="Path_41" data-name="Path 41" class="cls-2" d="M63.11,40.47H61.17c-.19-.56-.25-1.41-.56-1.51a3.59,3.59,0,0,0-2,.13c-.16,0-.1.82-.16,1.37h-1l2.88-6.13Zm-2.59-2-.82-1.89-.84,1.89Z"/><path id="Path_42" data-name="Path 42" class="cls-1" d="M51.51,37.46c.41.33,1.05.6,1.18,1a1.8,1.8,0,0,1-.48,1.45c-.47.5-1,.22-1-.5,0-.24,0-.49,0-.74v-.94Z"/><path id="Path_43" data-name="Path 43" class="cls-1" d="M51.24,37.21V34.92c.76,0,1.27.22,1.35,1S52.14,37.08,51.24,37.21Z"/><path id="Path_44" data-name="Path 44" class="cls-1" d="M60.52,38.44H58.85l.85-1.89Z"/></g></g></svg>