<svg id="Layer_1" data-name="Layer 1" xmlns="http://www.w3.org/2000/svg" viewBox="0 0 130.78 131.04"><defs><style>.cls-1{fill:#ae275f;}.cls-2{fill:#fff;}</style></defs><title>Artboard 2axisbank</title><g id="Group_52" data-name="Group 52"><g id="Group_60" data-name="Group 60"><g id="Group_34" data-name="Group 34"><g id="sHc5dC.tif"><g id="Group_32" data-name="Group 32"><path id="Path_27" data-name="Path 27" class="cls-1" d="M94.16,116.08a11.43,11.43,0,0,1-.16-1.31c0-2.23,0-4.46,0-6.8H71.36c-1.25,0-1.28,0-1.28-1.32,0-1.91,0-3.82,0-5.73,0-.74.14-1,1-1.2a29.4,29.4,0,0,0,16.44-8.94,2,2,0,0,1,1.62-.69c1.58,0,3.16,0,4.88,0v-1C94,87.07,94,85,94,83a3.34,3.34,0,0,1,.34-.93,3.09,3.09,0,0,1,.81.41c5.31,5.29,10.6,10.6,15.92,15.87.63.63.45,1-.08,1.53q-7.78,7.73-15.52,15.51a7.09,7.09,0,0,0-.59.74Z"/><path id="Path_28" data-name="Path 28" class="cls-1" d="M19.82,41a7.09,7.09,0,0,0,.74-.59L35.83,25.17a2.22,2.22,0,0,1,.38-.37,7.93,7.93,0,0,1,.83-.4,2.8,2.8,0,0,1,.31.85c0,1.58,0,3.16,0,4.74v2.47H60c1.22,0,1.25,0,1.25,1.25,0,2,0,4.06,0,6.09,0,.53-.13.77-.72.87a29.42,29.42,0,0,0-16.7,9,2,2,0,0,1-1.62.68c-1.58,0-3.16,0-4.88,0v1c0,2.06,0,4.12,0,6.18a3.26,3.26,0,0,1-.33.92,3.27,3.27,0,0,1-.89-.46q-7.8-7.77-15.58-15.57c-.23-.23-.49-.42-.74-.63Z"/><path id="Path_29" data-name="Path 29" class="cls-1" d="M38.47,70.12a27.21,27.21,0,1,1,27.11,27.3h-.23A27.3,27.3,0,0,1,38.47,70.12ZM67.11,85.45c.52-.13,1-.22,1.43-.37,3.32-1.06,5.65-3.14,6.25-6.67a7.85,7.85,0,0,0-3.85-8.56c-1.33-.83-2.81-1.42-4.2-2.15a26.72,26.72,0,0,1-4.11-2.31,4,4,0,0,1-.76-5.56,3.88,3.88,0,0,1,1.9-1.36A9.89,9.89,0,0,1,66.92,58a11.31,11.31,0,0,1,5.69,1.6c.16-.4.3-.73.42-1.06.91-2.44.92-2.48-1.61-3.2-1.28-.37-2.61-.55-4-.84v-4.6h-3c0,1.39,0,2.73,0,4.06,0,.62-.1.9-.81,1.08a11.32,11.32,0,0,0-3.19,1.34,7.36,7.36,0,0,0-2.49,10.1,7.51,7.51,0,0,0,2,2.2,46.82,46.82,0,0,0,5.18,2.77,31.09,31.09,0,0,1,3.57,2A4.47,4.47,0,0,1,70.6,78a4.68,4.68,0,0,1-3.45,3.85,8.62,8.62,0,0,1-5,.07c-1.53-.41-3-1-4.6-1.59-.26.72-.52,1.56-.87,2.38-.22.52-.15.84.38,1.06a22.15,22.15,0,0,0,2.72,1.11c1.37.36,2.79.55,4.28.83v4.81h3.08Z"/></g><rect id="Rectangle_68" data-name="Rectangle 68" class="cls-1" x="56.53" y="47.05" width="20.34" height="47.07"/></g><g id="Sxd5mG.tif"><g id="Group_33" data-name="Group 33"><path id="Path_30" data-name="Path 30" class="cls-2" d="M53.7,52H78a1.31,1.31,0,0,1,.59,1.26c0,.75,0,1.49,0,2.24,0,.93-.32,1.25-1.27,1.25H71.24l1.75,4h.25c1.39,0,2.79,0,4.18,0,.87,0,1.17.3,1.17,1.15s0,1.63,0,2.44-.28,1.15-1.17,1.15H73a30.26,30.26,0,0,1-1,3,11.31,11.31,0,0,1-7.5,6.1c-1,.29-2,.46-3,.69a1.58,1.58,0,0,0,.12.15c4.42,4.78,8.56,9.82,12.69,14.86.26.32.49.63.27,1.07a1,1,0,0,1-1.07.57c-1.69,0-3.38,0-5.07,0a1.32,1.32,0,0,1-1.12-.52c-4.53-5.41-9.1-10.81-13.91-16a1.26,1.26,0,0,1-.32-.78c0-1.15,0-2.29,0-3.44a.9.9,0,0,1,.78-1,.88.88,0,0,1,.23,0c.57,0,1.13,0,1.7,0a22.4,22.4,0,0,0,5-.37,7.55,7.55,0,0,0,4.1-2.18,4.77,4.77,0,0,0,1.15-2.2H54.2c-.81,0-1.11-.3-1.11-1.11s0-1.39,0-2.08c0-1.38.17-1.55,1.53-1.55H65.69a4.83,4.83,0,0,0-2-2,9.4,9.4,0,0,0-4.25-1.08c-1.75-.06-3.51,0-5.27-.07-.77,0-1.09-.32-1.09-1.09,0-1.13,0-2.26,0-3.38A1.05,1.05,0,0,1,53.7,52Z"/></g></g></g></g></g></svg>