<svg id="Layer_1" data-name="Layer 1" xmlns="http://www.w3.org/2000/svg" viewBox="0 0 130.23 130.49"><defs><style>.cls-1{fill:#ae275f;}.cls-2{fill:#f0efef;}.cls-3{fill:none;stroke:#f0efef;stroke-miterlimit:10;stroke-width:1.88px;}.cls-4{fill:#fff;}</style></defs><title>Artboard 2 copy 2axisbank</title><g id="Group_41" data-name="Group 41"><g id="aOPH3U.tif"><g id="_2YjMl1.tif" data-name=" 2YjMl1.tif"><g id="Group_36" data-name="Group 36"><path id="Rectangle_86" data-name="Rectangle 86" class="cls-1" d="M64.7,16.51h0a37.87,37.87,0,0,1,37.87,37.87V82A37.86,37.86,0,0,1,64.7,119.89h0A37.86,37.86,0,0,1,26.84,82V54.38A37.87,37.87,0,0,1,64.7,16.51Z"/><path id="Path_45" data-name="Path 45" class="cls-2" d="M65,69.18V52.93h-12l11.29-27,.47.06V42.11H76.9L65.54,69.29Z"/><circle id="Ellipse_34" data-name="Ellipse 34" class="cls-2" cx="40.08" cy="82.94" r="2.05"/><line id="Line_9" data-name="Line 9" class="cls-3" x1="45.35" y1="82.94" x2="90.24" y2="82.94"/><circle id="Ellipse_35" data-name="Ellipse 35" class="cls-2" cx="40.08" cy="89.12" r="2.05"/><line id="Line_10" data-name="Line 10" class="cls-3" x1="45.35" y1="89.12" x2="90.24" y2="89.12"/><circle id="Ellipse_36" data-name="Ellipse 36" class="cls-2" cx="40.08" cy="95.8" r="2.05"/><line id="Line_11" data-name="Line 11" class="cls-3" x1="45.35" y1="95.8" x2="90.24" y2="95.8"/><circle id="Ellipse_37" data-name="Ellipse 37" class="cls-2" cx="40.08" cy="102.65" r="2.05"/><line id="Line_12" data-name="Line 12" class="cls-3" x1="45.35" y1="102.65" x2="90.24" y2="102.65"/></g></g></g><circle id="Ellipse_38-2" data-name="Ellipse 38-2" class="cls-1" cx="32" cy="23.44" r="10.54"/><g id="Sxd5mG.tif-2"><g id="Group_37-2" data-name="Group 37-2"><path id="Path_46-2" data-name="Path 46-2" class="cls-4" d="M27.38,17.2h9a.48.48,0,0,1,.22.47c0,.27,0,.55,0,.82s-.12.46-.47.46H33.86l.65,1.49h1.63c.33,0,.44.11.44.43v.9c0,.32-.1.42-.43.42H34.52a8.68,8.68,0,0,1-.38,1.12,4.19,4.19,0,0,1-2.77,2.26c-.36.11-.73.17-1.1.25l0,.06C32,27.64,33.48,29.5,35,31.36c.1.12.18.23.1.4a.38.38,0,0,1-.39.21H32.83a.48.48,0,0,1-.41-.19c-1.67-2-3.36-4-5.13-5.9a.4.4,0,0,1-.12-.29c0-.42,0-.85,0-1.27a.32.32,0,0,1,.28-.37h.72A8.29,8.29,0,0,0,30,23.81a2.72,2.72,0,0,0,1.51-.8A1.82,1.82,0,0,0,32,22.2H27.58c-.3,0-.41-.11-.41-.41V21c0-.51.06-.57.56-.57h4.09a1.78,1.78,0,0,0-.74-.75,3.29,3.29,0,0,0-1.56-.4c-.65,0-1.3,0-1.95,0-.29,0-.4-.12-.4-.4V17.62A.4.4,0,0,1,27.38,17.2Z"/></g></g></g></svg>