<svg id="Layer_1" data-name="Layer 1" xmlns="http://www.w3.org/2000/svg" viewBox="0 0 130.78 131.04"><defs><style>.cls-1{fill:#ae275f;}.cls-2{fill:#fff;}</style></defs><title>Artboard 2 copy 3axisbank</title><g id="Group_40" data-name="Group 40"><g id="_2qhg5V.tif" data-name=" 2qhg5V.tif"><g id="Group_39" data-name="Group 39"><path id="Path_47" data-name="Path 47" class="cls-1" d="M111.37,32.91v50a6.82,6.82,0,0,1-2.81,4.22,19,19,0,0,1-4.79,2.56,57.14,57.14,0,0,1-13.6,3.06,104.76,104.76,0,0,1-11.87.73.69.69,0,0,0-.7.43,31.87,31.87,0,0,1-9.34,10.46,31.52,31.52,0,0,1-14.5,5.71c-.8.1-1.61.18-2.42.27H47.9l-1-.11a32,32,0,0,1-4.69-62.92L43.74,47a18.9,18.9,0,0,1-.19-1.89c0-3.75,0-7.49,0-11.24a5.6,5.6,0,0,1,1.38-3.72,11.55,11.55,0,0,1,3.34-2.59,33.09,33.09,0,0,1,8.51-3,88.82,88.82,0,0,1,18.38-2.08A99.25,99.25,0,0,1,95.5,23.94a39.45,39.45,0,0,1,10.28,3.14C108.34,28.34,110.67,29.85,111.37,32.91ZM77.18,78.35A27.51,27.51,0,0,0,49.64,50.87h-.08A27.51,27.51,0,1,0,77.18,78.35Zm2.76-51.49c-8.73,0-15,.44-21.08,1.76a32.87,32.87,0,0,0-8.4,2.77,9.93,9.93,0,0,0-1.89,1.27c-.78.66-.76,1.21,0,1.91a6.92,6.92,0,0,0,1.11.82,26.73,26.73,0,0,0,7,2.68,75.15,75.15,0,0,0,15.86,2.17,96,96,0,0,0,22.26-1.4,37.11,37.11,0,0,0,8.76-2.6,15,15,0,0,0,2.78-1.73c.77-.59.74-1.21,0-1.83a11.71,11.71,0,0,0-2.06-1.37,37.56,37.56,0,0,0-10.15-3.07A84.66,84.66,0,0,0,79.94,26.86ZM48,39.6c0,1.93,0,3.81,0,5.69a1.4,1.4,0,0,0,1.07,1.16c1.38,0,2.77,0,4.15.17a31.66,31.66,0,0,1,13.43,4.71,2,2,0,0,0,.89.29c2,.15,3.91.32,5.86.39a97.35,97.35,0,0,0,20.32-1.23,39.84,39.84,0,0,0,9.53-2.67,23.44,23.44,0,0,0,3-1.74,1.5,1.5,0,0,0,.66-1.4c0-1.63,0-3.25,0-4.88a4.4,4.4,0,0,0,0-.48l-.22.09a31.26,31.26,0,0,1-7.49,2.78,85.33,85.33,0,0,1-18.35,2.28,102.29,102.29,0,0,1-20.6-1.34,44.89,44.89,0,0,1-9.6-2.62c-.86-.36-1.7-.78-2.62-1.2Zm58.91,11.71-.39.18c-1.4.6-2.77,1.29-4.21,1.77a70.71,70.71,0,0,1-18,3.07,98.11,98.11,0,0,1-11,.11l-.43,0,.12.18a31.19,31.19,0,0,1,4.92,7c.16.3.37.28.62.28a92.86,92.86,0,0,0,15.35-1.34,40.64,40.64,0,0,0,9.43-2.68,23.58,23.58,0,0,0,2.91-1.71,1.48,1.48,0,0,0,.64-1.41c0-.65,0-1.31,0-2Zm0,24.07-.4.18c-1.25.54-2.48,1.16-3.76,1.61a68.84,68.84,0,0,1-17.42,3.16c-1.25.09-2.5.14-3.8.22A33,33,0,0,1,79.8,89l.33,0a90.52,90.52,0,0,0,13.25-1.21,41.53,41.53,0,0,0,9.73-2.67,23.64,23.64,0,0,0,3.13-1.79,1.52,1.52,0,0,0,.68-1.43c0-1.83,0-3.67,0-5.5Zm0-12.19c-1.45.6-2.82,1.25-4.24,1.74a69.48,69.48,0,0,1-17.85,3.16c-1.59.1-3.18.16-4.82.24a32.2,32.2,0,0,1,1.52,7.72h.38a84.06,84.06,0,0,0,13.32-1.48A36.56,36.56,0,0,0,103.65,72a18.75,18.75,0,0,0,2.64-1.6,1.53,1.53,0,0,0,.63-1.41c0-1.13,0-2.26,0-3.39Z"/></g></g><circle id="Ellipse_38" data-name="Ellipse 38" class="cls-1" cx="49.73" cy="78.3" r="30.03"/><g id="Sxd5mG.tif"><g id="Group_37" data-name="Group 37"><path id="Path_46" data-name="Path 46" class="cls-2" d="M36.6,60.53H62.13a1.35,1.35,0,0,1,.62,1.33c0,.78,0,1.58,0,2.35,0,1-.34,1.31-1.33,1.31H55.05l1.84,4.25h4.66c.92,0,1.23.31,1.23,1.22v2.56c0,.92-.3,1.21-1.22,1.21H56.93A30,30,0,0,1,55.83,78,11.89,11.89,0,0,1,48,84.37c-1,.31-2.08.48-3.14.72a1.83,1.83,0,0,0,.13.16c4.66,5,9,10.32,13.35,15.63.27.33.51.66.28,1.12a1.1,1.1,0,0,1-1.12.6H52.11a1.41,1.41,0,0,1-1.17-.54c-4.77-5.7-9.57-11.37-14.63-16.8a1.45,1.45,0,0,1-.34-.83c0-1.2,0-2.41,0-3.61a.94.94,0,0,1,.82-1.06.53.53,0,0,1,.25,0h1.78a23.64,23.64,0,0,0,5.31-.4,8,8,0,0,0,4.31-2.29,5.07,5.07,0,0,0,1.2-2.32H37.14c-.85,0-1.17-.31-1.17-1.16v-2.2c0-1.45.18-1.63,1.61-1.63H49.22a5.1,5.1,0,0,0-2.1-2.14,9.75,9.75,0,0,0-4.46-1.14c-1.84-.07-3.7,0-5.54-.07-.82,0-1.15-.34-1.15-1.15V61.7A1.11,1.11,0,0,1,36.6,60.53Z"/></g></g></g></svg>